<svg xmlns="http://www.w3.org/2000/svg">
	<!-- ! search icon -->
	<symbol id="search-icon" viewBox="0 0 21 21" fill="currentColor">
		<path
			d="M20.2748 19.1875L15.4656 14.3793C16.8595 12.7058 17.5546 10.5594 17.4062 8.38649C17.2579 6.2136 16.2775 4.18155 14.6691 2.71306C13.0607 1.24457 10.948 0.452702 8.77066 0.502187C6.59327 0.551672 4.51878 1.4387 2.97874 2.97874C1.4387 4.51878 0.551672 6.59327 0.502187 8.77066C0.452702 10.948 1.24457 13.0607 2.71306 14.6691C4.18155 16.2775 6.2136 17.2579 8.38649 17.4062C10.5594 17.5546 12.7058 16.8595 14.3793 15.4656L19.1875 20.2748C19.2589 20.3462 19.3437 20.4028 19.437 20.4415C19.5302 20.4801 19.6302 20.5 19.7312 20.5C19.8321 20.5 19.9321 20.4801 20.0254 20.4415C20.1187 20.4028 20.2034 20.3462 20.2748 20.2748C20.3462 20.2034 20.4028 20.1187 20.4415 20.0254C20.4801 19.9321 20.5 19.8321 20.5 19.7312C20.5 19.6302 20.4801 19.5302 20.4415 19.437C20.4028 19.3437 20.3462 19.2589 20.2748 19.1875ZM2.05803 8.97361C2.05803 7.60583 2.46362 6.26878 3.22351 5.13151C3.9834 3.99425 5.06347 3.10787 6.32713 2.58444C7.59078 2.06102 8.98128 1.92407 10.3228 2.19091C11.6643 2.45775 12.8965 3.11639 13.8637 4.08355C14.8308 5.05071 15.4895 6.28295 15.7563 7.62444C16.0231 8.96593 15.8862 10.3564 15.3628 11.6201C14.8393 12.8837 13.953 13.9638 12.8157 14.7237C11.6784 15.4836 10.3414 15.8892 8.97361 15.8892C7.1401 15.8872 5.38228 15.1579 4.0858 13.8614C2.78932 12.5649 2.06006 10.8071 2.05803 8.97361Z"
		/>
	</symbol>

	<!-- ! location icon -->
	<!-- <symbol id="location-icon" fill="currentColor" viewBox="0 0 32 32">
		<path
			d="M16.114-0.011c-6.559 0-12.114 5.587-12.114 12.204 0 6.93 6.439 14.017 10.77 18.998 0.017 0.020
	0.717 0.797 1.579 0.797h0.076c0.863 0 1.558-0.777 1.575-0.797 4.064-4.672 10-12.377 10-18.998
	0-6.618-4.333-12.204-11.886-12.204zM16.515 29.849c-0.035 0.035-0.086 0.074-0.131
	0.107-0.046-0.032-0.096-0.072-0.133-0.107l-0.523-0.602c-4.106-4.71-9.729-11.161-9.729-17.055
	0-5.532 4.632-10.205 10.114-10.205 6.829 0 9.886 5.125 9.886 10.205 0 4.474-3.192 10.416-9.485
	17.657zM16.035 6.044c-3.313 0-6 2.686-6 6s2.687 6 6 6 6-2.687 6-6-2.686-6-6-6zM16.035
	16.044c-2.206 0-4.046-1.838-4.046-4.044s1.794-4 4-4c2.207 0 4 1.794 4 4 0.001 2.206-1.747
	4.044-3.954 4.044z">
		</path>
	</symbol> -->
	<symbol id="location-icon" viewBox="0 0 24 24" fill="currentColor">
		<path
			d="M12 2C14.3869 2 16.6761 2.94821 18.364 4.63604C20.0518 6.32387 21 8.61305 21 11C21 14.074 19.324 16.59 17.558 18.395C16.6757 19.2871 15.7129 20.0958 14.682 20.811L14.256 21.101L14.056 21.234L13.679 21.474L13.343 21.679L12.927 21.921C12.6446 22.0822 12.3251 22.1669 12 22.1669C11.6749 22.1669 11.3554 22.0822 11.073 21.921L10.657 21.679L10.137 21.359L9.945 21.234L9.535 20.961C8.42283 20.2085 7.3869 19.3491 6.442 18.395C4.676 16.589 3 14.074 3 11C3 8.61305 3.94821 6.32387 5.63604 4.63604C7.32387 2.94821 9.61305 2 12 2ZM12 8C11.606 8 11.2159 8.0776 10.8519 8.22836C10.488 8.37913 10.1573 8.6001 9.87868 8.87868C9.6001 9.15726 9.37913 9.48797 9.22836 9.85195C9.0776 10.2159 9 10.606 9 11C9 11.394 9.0776 11.7841 9.22836 12.1481C9.37913 12.512 9.6001 12.8427 9.87868 13.1213C10.1573 13.3999 10.488 13.6209 10.8519 13.7716C11.2159 13.9224 11.606 14 12 14C12.7956 14 13.5587 13.6839 14.1213 13.1213C14.6839 12.5587 15 11.7956 15 11C15 10.2044 14.6839 9.44129 14.1213 8.87868C13.5587 8.31607 12.7956 8 12 8Z"
		/>
	</symbol>

	<!-- ! filter icon -->
	<symbol id="filter-icon" viewBox="0 0 23 20" fill="none">
		<path
			d="M1.59722 3.30264L9.1459 11.6062C9.37626 11.8596 9.50391 12.1898 9.50391 12.5322V18.3333C9.50391 18.9952 10.2758 19.3567 10.7843 18.933L13.0086 17.0794C13.3224 16.8179 13.5039 16.4304 13.5039 16.0219V12.5322C13.5039 12.1898 13.6315 11.8596 13.8619 11.6062L21.4106 3.30264C22.2145 2.41834 21.5871 1 20.392 1H2.61584C1.42073 1 0.793304 2.41834 1.59722 3.30264Z"
			stroke="currentColor" stroke-width="1.37662" />
	</symbol>
	<!-- ! filter icons category -->
	<!-- <symbol id="filter-realty" viewBox="0 0 25 24" fill="none" stroke="currentColor">
		<path
			d="M21.5 22.0001V7.48509C21.5 6.38709 21.5 5.83909 21.184 5.37509C20.869 4.91209 20.288 4.60809 19.125 3.99909L17.645 3.22509C15.821 2.26909 14.908 1.79109 14.205 2.08709C13.5 2.38309 13.5 3.24509 13.5 4.96709V9.00009M22.5 22.0001H2.5M21.5 8.00009H19.5M21.5 11.0001H19.5M21.5 14.0001H19.5"
			stroke-width="1.5" stroke-linecap="round" stroke-linejoin="round" />
		<path
			d="M12 13H13M12 16H13M8.5 13C8.5 11.114 8.5 10.172 9.086 9.586C9.672 9 10.614 9 12.5 9C14.386 9 15.328 9 15.914 9.586C16.5 10.172 16.5 11.114 16.5 13V22H8.5V13Z"
			stroke-width="1.5" stroke-linecap="round" stroke-linejoin="round" />
		<path
			d="M4 16C4.82843 16 5.5 15.1046 5.5 14C5.5 12.8954 4.82843 12 4 12C3.17157 12 2.5 12.8954 2.5 14C2.5 15.1046 3.17157 16 4 16Z"
			stroke-width="1.5" stroke-linecap="round" stroke-linejoin="round" />
		<path d="M4 16V22" stroke-width="1.5" stroke-linecap="round"
			stroke-linejoin="round" />
	</symbol> -->

	<!-- ! favorite icon -->
	<symbol id="favorite-icon" viewBox="0 0 20 20" fill="currentColor">
		<path
			d="M10.0638 18.2917L8.85547 17.1917C4.5638 13.3 1.73047 10.725 1.73047 7.58333C1.73047 5.00833 3.74714 3 6.3138 3C7.7638 3 9.15547 3.675 10.0638 4.73333C10.9721 3.675 12.3638 3 13.8138 3C16.3805 3 18.3971 5.00833 18.3971 7.58333C18.3971 10.725 15.5638 13.3 11.2721 17.1917L10.0638 18.2917Z"
		/>
	</symbol>

	<!-- ! favorite-o icon -->
	<symbol id="favorite-o-icon" viewBox="0 0 20 20" fill="currentColor">
		<path
			d="M9.96869 15.2769L9.87748 15.3681L9.77714 15.2769C5.44437 11.3455 2.58018 8.74581 2.58018 6.10966C2.58018 4.28534 3.94843 2.9171 5.77275 2.9171C7.17748 2.9171 8.54572 3.82926 9.02917 5.0698H10.7258C11.2092 3.82926 12.5775 2.9171 13.9822 2.9171C15.8065 2.9171 17.1748 4.28534 17.1748 6.10966C17.1748 8.74581 14.3106 11.3455 9.96869 15.2769ZM13.9822 1.09277C12.395 1.09277 10.8717 1.83162 9.87748 2.99007C8.88322 1.83162 7.35991 1.09277 5.77275 1.09277C2.96329 1.09277 0.755859 3.29108 0.755859 6.10966C0.755859 9.54852 3.85721 12.3671 8.55484 16.6269L9.87748 17.8309L11.2001 16.6269C15.8977 12.3671 18.9991 9.54852 18.9991 6.10966C18.9991 3.29108 16.7917 1.09277 13.9822 1.09277Z"
		/>
	</symbol>

	<!-- ! cart icon -->
	<symbol id="cart-icon" viewBox="0 0 20 21" fill="currentColor">
		<path
			d="M14.2318 15.5001C13.3068 15.5001 12.5651 16.2417 12.5651 17.1667C12.5651 17.6088 12.7407 18.0327 13.0533 18.3453C13.3658 18.6578 13.7897 18.8334 14.2318 18.8334C14.6738 18.8334 15.0977 18.6578 15.4103 18.3453C15.7228 18.0327 15.8984 17.6088 15.8984 17.1667C15.8984 16.7247 15.7228 16.3008 15.4103 15.9882C15.0977 15.6757 14.6738 15.5001 14.2318 15.5001ZM0.898438 2.16675V3.83341H2.5651L5.5651 10.1584L4.43177 12.2001C4.30677 12.4334 4.23177 12.7084 4.23177 13.0001C4.23177 13.4421 4.40737 13.866 4.71993 14.1786C5.03249 14.4912 5.45641 14.6667 5.89844 14.6667H15.8984V13.0001H6.24844C6.19318 13.0001 6.14019 12.9781 6.10112 12.9391C6.06205 12.9 6.0401 12.847 6.0401 12.7917C6.0401 12.7501 6.04844 12.7167 6.0651 12.6917L6.8151 11.3334H13.0234C13.6484 11.3334 14.1984 10.9834 14.4818 10.4751L17.4651 5.08341C17.5234 4.95008 17.5651 4.80841 17.5651 4.66675C17.5651 4.44573 17.4773 4.23377 17.321 4.07749C17.1647 3.92121 16.9528 3.83341 16.7318 3.83341H4.40677L3.62344 2.16675M5.89844 15.5001C4.97344 15.5001 4.23177 16.2417 4.23177 17.1667C4.23177 17.6088 4.40737 18.0327 4.71993 18.3453C5.03249 18.6578 5.45641 18.8334 5.89844 18.8334C6.34046 18.8334 6.76439 18.6578 7.07695 18.3453C7.38951 18.0327 7.5651 17.6088 7.5651 17.1667C7.5651 16.7247 7.38951 16.3008 7.07695 15.9882C6.76439 15.6757 6.34046 15.5001 5.89844 15.5001Z"
		/>
	</symbol>

	<!-- ! chat icon -->
	<symbol id="chat-icon" viewBox="0 0 20 20" fill="none">
		<path d="M15 13L18 8.5V14.1972C18 15.1866 16.7168 15.5752 16.1679 14.7519L15 13Z" fill="black" />
		<path d="M7.5 15.5L3 12.5L3 18.5C3 19.461 4.22339 19.8688 4.8 19.1L7.5 15.5Z" fill=" black" />
		<rect x="5" y="0.5" width="15" height="11" rx="2" fill="black" />
		<rect x="1" y="3.5" width="15" height="11" rx="2" fill="white" />
		<rect y="4.5" width="15" height="11" rx="2" fill="black" />
		<path d="M8 7L3 7" stroke="white" stroke-linecap="round" />
		<path d="M12 9.5L3 9.5" stroke="white" stroke-linecap="round" />
		<path d="M12 11.5L3 11.5" stroke="white" stroke-linecap="round" />
	</symbol>

	<!-- ! moon icon -->
	<symbol id="moon-icon" viewBox="0 0 20 20" fill="currentColor">
		<path
			d="M10.5084 5.14329L11.1663 5.38316C11.4259 5.47816 11.6302 5.67845 11.726 5.93179L11.969 6.58095C12.0846 6.89049 12.3799 7.09554 12.71 7.09554C13.0402 7.09554 13.3354 6.89129 13.4518 6.58174L13.6949 5.93416C13.7914 5.67924 13.9957 5.47816 14.2554 5.38395L14.9132 5.14408C15.2259 5.03008 15.4334 4.73241 15.4334 4.4007C15.4334 4.06899 15.2252 3.77133 14.9132 3.65733L14.2554 3.41745C13.9957 3.32245 13.7914 3.12216 13.6957 2.86804L13.4518 2.21887C13.3362 1.90933 13.0402 1.70508 12.71 1.70508C12.3799 1.70508 12.0846 1.91012 11.969 2.21966L11.7268 2.86645C11.6302 3.12137 11.4259 3.32245 11.1663 3.41666L10.5084 3.65654C10.1957 3.77054 9.98828 4.0682 9.98828 4.39991C9.98828 4.73162 10.1965 5.02929 10.5084 5.14329Z"
		/>
		<path
			d="M17.7221 10.0034C17.4038 9.87039 17.0333 9.95905 16.8109 10.2243C16.0762 11.0998 14.8262 11.5076 12.8779 11.5076C9.85846 11.5076 7.98617 10.6921 7.98617 6.63247C7.98617 4.73485 8.40734 3.45076 9.27342 2.70818C9.53467 2.48335 9.62096 2.11522 9.48638 1.79776C9.3518 1.4811 9.03434 1.28635 8.68284 1.3196C4.1838 1.74472 0.791504 5.46951 0.791504 9.98201C0.791504 14.7811 4.7055 18.6856 9.51725 18.6856C14.0456 18.6856 17.7807 15.2988 18.2042 10.8077C18.2375 10.4626 18.0419 10.1372 17.7221 10.0034Z"
		/>
		<path
			d="M14.6377 10.4355C15.2935 10.4355 15.8252 9.90389 15.8252 9.24805C15.8252 8.59221 15.2935 8.06055 14.6377 8.06055C13.9819 8.06055 13.4502 8.59221 13.4502 9.24805C13.4502 9.90389 13.9819 10.4355 14.6377 10.4355Z"
		/>
		<path
			d="M11.0752 9.96826C11.731 9.96826 12.2627 9.4366 12.2627 8.78076C12.2627 8.12492 11.731 7.59326 11.0752 7.59326C10.4194 7.59326 9.8877 8.12492 9.8877 8.78076C9.8877 9.4366 10.4194 9.96826 11.0752 9.96826Z"
		/>
	</symbol>

	<!-- ! sun icon -->
	<symbol id="sun-icon" viewBox="0 0 20 20" fill="currentColor">
		<path
			d="M9.5 13.9583C7.315 13.9583 5.54167 12.185 5.54167 10C5.54167 7.815 7.315 6.04167 9.5 6.04167C11.685 6.04167 13.4583 7.815 13.4583 10C13.4583 12.185 11.685 13.9583 9.5 13.9583ZM10.2917 3.66667V1.29167C10.2917 0.85625 9.93542 0.5 9.5 0.5C9.06458 0.5 8.70833 0.85625 8.70833 1.29167V3.66667C8.70833 4.10208 9.06458 4.45833 9.5 4.45833C9.93542 4.45833 10.2917 4.10208 10.2917 3.66667ZM10.2917 18.7083V16.3333C10.2917 15.8979 9.93542 15.5417 9.5 15.5417C9.06458 15.5417 8.70833 15.8979 8.70833 16.3333V18.7083C8.70833 19.1438 9.06458 19.5 9.5 19.5C9.93542 19.5 10.2917 19.1438 10.2917 18.7083ZM3.95833 10C3.95833 9.56458 3.60208 9.20833 3.16667 9.20833H0.791667C0.35625 9.20833 0 9.56458 0 10C0 10.4354 0.35625 10.7917 0.791667 10.7917H3.16667C3.60208 10.7917 3.95833 10.4354 3.95833 10ZM19 10C19 9.56458 18.6438 9.20833 18.2083 9.20833H15.8333C15.3979 9.20833 15.0417 9.56458 15.0417 10C15.0417 10.4354 15.3979 10.7917 15.8333 10.7917H18.2083C18.6438 10.7917 19 10.4354 19 10ZM5.31208 5.81208C5.62083 5.50333 5.62083 5.00458 5.31208 4.69583L3.72875 3.1125C3.42 2.80375 2.92125 2.80375 2.6125 3.1125C2.30375 3.42125 2.30375 3.92 2.6125 4.22875L4.19583 5.81208C4.35417 5.97042 4.55208 6.04167 4.75792 6.04167C4.96375 6.04167 5.16167 5.9625 5.32 5.81208H5.31208ZM16.3954 16.8954C16.7042 16.5867 16.7042 16.0879 16.3954 15.7792L14.8121 14.1958C14.5033 13.8871 14.0046 13.8871 13.6958 14.1958C13.3871 14.5046 13.3871 15.0033 13.6958 15.3121L15.2792 16.8954C15.4375 17.0537 15.6354 17.125 15.8413 17.125C16.0471 17.125 16.245 17.0458 16.4033 16.8954H16.3954ZM3.72875 16.8954L5.31208 15.3121C5.62083 15.0033 5.62083 14.5046 5.31208 14.1958C5.00333 13.8871 4.50458 13.8871 4.19583 14.1958L2.6125 15.7792C2.30375 16.0879 2.30375 16.5867 2.6125 16.8954C2.77083 17.0537 2.96875 17.125 3.17458 17.125C3.38042 17.125 3.57833 17.0458 3.73667 16.8954H3.72875ZM14.8121 5.81208L16.3954 4.22875C16.7042 3.92 16.7042 3.42125 16.3954 3.1125C16.0867 2.80375 15.5879 2.80375 15.2792 3.1125L13.6958 4.69583C13.3871 5.00458 13.3871 5.50333 13.6958 5.81208C13.8542 5.97042 14.0521 6.04167 14.2579 6.04167C14.4638 6.04167 14.6617 5.9625 14.82 5.81208H14.8121Z"
		/>
	</symbol>

	<!-- ! sort products icon -->
	<symbol id="sort-icon" viewBox="0 0 35 32" fill="currentColor">
		<path
			d="M6.73625 0.292892C7.12678 -0.0976314 7.75994 -0.0976315 8.15046 0.292892L14.5144 6.65685C14.905 7.04738 14.905 7.68054 14.5144 8.07107C14.1239 8.46159 13.4907 8.46159 13.1002 8.07107L7.44336 2.41421L1.7865 8.07107C1.39598 8.46159 0.762815 8.46159 0.372291 8.07107C-0.0182338 7.68054 -0.0182339 7.04738 0.372291 6.65685L6.73625 0.292892ZM6.44336 31L6.44336 0.999998L8.44336 0.999998L8.44336 31L6.44336 31Z" />
		<path
			d="M26.7363 31.7071C27.1268 32.0976 27.7599 32.0976 28.1505 31.7071L34.5144 25.3431C34.905 24.9526 34.905 24.3195 34.5144 23.9289C34.1239 23.5384 33.4907 23.5384 33.1002 23.9289L27.4434 29.5858L21.7865 23.9289C21.396 23.5384 20.7628 23.5384 20.3723 23.9289C19.9818 24.3195 19.9818 24.9526 20.3723 25.3431L26.7363 31.7071ZM26.4434 1L26.4434 31L28.4434 31L28.4434 1L26.4434 1Z" />
	</symbol>

	<!-- ! options icon -->
	<symbol id="options-icon" viewBox="0 0 25 5" fill="currentColor">
		<circle cx="2.22831" cy="2.80107" r="2.14823" />
		<circle cx="12.5408" cy="2.80107" r="2.14823" />
		<circle cx="22.8514" cy="2.80107" r="2.14823" />
	</symbol>

	<!-- ! pagination-arrow icon -->
	<symbol viewBox="0 0 50 50" fill=" currentColor">
		<path
			d="M14.5858 26.4142C13.8047 25.6332 13.8047 24.3668 14.5858 23.5858L27.3137 10.8579C28.0948 10.0768 29.3611 10.0768 30.1421 10.8579C30.9232 11.6389 30.9232 12.9052 30.1421 13.6863L18.8284 25L30.1421 36.3137C30.9232 37.0948 30.9232 38.3611 30.1421 39.1421C29.3611 39.9232 28.0948 39.9232 27.3137 39.1421L14.5858 26.4142ZM17 27L16 27L16 23L17 23L17 27Z"
		/>
	</symbol>

	<!-- ! socials icon -->
	<symbol id="facebook-icon" viewBox="0 0 32 32" fill="transparent">
		<path
			d="M17.5 18V26.5H13.5V18H10V14H10.5H13.5V10L14 8.5L15 7L16 6L17.5 5.5H21.5V9.5H18L17.5 10V14H18H22L20.5 18H17.5Z"
			stroke="currentColor" stroke-linejoin="round" />
	</symbol>
	<symbol id="instagram-icon" viewBox="0 0 32 32" fill="transparent">
		<path
			d="M32 16C32 24.8366 24.8366 32 16 32C7.16344 32 0 24.8366 0 16C0 7.16344 7.16344 0 16 0C24.8366 0 32 7.16344 32 16Z"
			fill="tranparent" />
		<path fill-rule="evenodd" clip-rule="evenodd"
			d="M13.9323 11.8442C14.8071 11.3903 15.8027 11.2238 16.7775 11.3683C17.7719 11.5158 18.6924 11.9791 19.4032 12.6899C20.1141 13.4008 20.5774 14.3213 20.7249 15.3157C20.8694 16.2905 20.7029 17.2861 20.249 18.1609C19.7951 19.0356 19.077 19.745 18.1967 20.188C17.3164 20.6311 16.3188 20.7853 15.3459 20.6288C14.3729 20.4722 13.4741 20.0128 12.7772 19.316C12.0804 18.6191 11.621 17.7203 11.4644 16.7473C11.3079 15.7743 11.4621 14.7768 11.9051 13.8965C12.3482 13.0162 13.0576 12.2981 13.9323 11.8442ZM16.5819 12.6872C15.8845 12.5838 15.1722 12.7029 14.5464 13.0277C13.9206 13.3524 13.4131 13.8662 13.0961 14.4959C12.7791 15.1257 12.6688 15.8394 12.7808 16.5355C12.8928 17.2316 13.2215 17.8746 13.72 18.3732C14.2186 18.8717 14.8616 19.2004 15.5577 19.3124C16.2538 19.4244 16.9675 19.314 17.5972 18.9971C18.227 18.6801 18.7408 18.1726 19.0655 17.5468C19.3902 16.921 19.5094 16.2087 19.4059 15.5113C19.3005 14.7999 18.969 14.1413 18.4604 13.6327C17.9519 13.1242 17.2933 12.7927 16.5819 12.6872Z"
			fill="black" />
		<path
			d="M21.5722 9.85432C21.204 9.85432 20.9056 10.1528 20.9056 10.521C20.9056 10.8892 21.204 11.1877 21.5722 11.1877H21.5838C21.952 11.1877 22.2504 10.8892 22.2504 10.521C22.2504 10.1528 21.952 9.85432 21.5838 9.85432H21.5722Z"
		/>
		<path fill-rule="evenodd" clip-rule="evenodd"
			d="M5.33333 11.0233C5.33333 7.88082 7.88082 5.33333 11.0233 5.33333H21.0699C24.2124 5.33333 26.7599 7.88082 26.7599 11.0233V21.0699C26.7599 24.2124 24.2124 26.7599 21.0699 26.7599H11.0233C7.88082 26.7599 5.33333 24.2124 5.33333 21.0699V11.0233ZM11.0233 6.66667C8.6172 6.66667 6.66667 8.6172 6.66667 11.0233V21.0699C6.66667 23.476 8.6172 25.4266 11.0233 25.4266H21.0699C23.476 25.4266 25.4266 23.476 25.4266 21.0699V11.0233C25.4266 8.6172 23.476 6.66667 21.0699 6.66667H11.0233Z"
			fill="black" />
	</symbol>
	<symbol id="youtube-icon" viewBox="0 0 32 32" fill="transparent">
		<path
			d="M32 16C32 24.8366 24.8366 32 16 32C7.16344 32 0 24.8366 0 16C0 7.16344 7.16344 0 16 0C24.8366 0 32 7.16344 32 16Z"
		/>
		<path fill-rule="evenodd" clip-rule="evenodd"
			d="M20.6667 16C20.6667 16.2382 20.5396 16.4583 20.3333 16.5774L13.3333 20.6188C13.1271 20.7379 12.8729 20.7379 12.6667 20.6188C12.4604 20.4997 12.3333 20.2796 12.3333 20.0415V11.9585C12.3333 11.7204 12.4604 11.5003 12.6667 11.3812C12.8729 11.2621 13.1271 11.2621 13.3333 11.3812L20.3333 15.4226C20.5396 15.5417 20.6667 15.7618 20.6667 16ZM13.6667 13.1132V18.8868L18.6667 16L13.6667 13.1132Z"
			fill="currentColor" />
		<path fill-rule="evenodd" clip-rule="evenodd"
			d="M22.6667 8H9.33333C7.12419 8 5.33333 9.79086 5.33333 12V20C5.33333 22.2091 7.12419 24 9.33333 24H22.6667C24.8758 24 26.6667 22.2091 26.6667 20V12C26.6667 9.79086 24.8758 8 22.6667 8ZM9.33333 6.66667C6.38781 6.66667 4 9.05448 4 12V20C4 22.9455 6.38781 25.3333 9.33333 25.3333H22.6667C25.6122 25.3333 28 22.9455 28 20V12C28 9.05448 25.6122 6.66667 22.6667 6.66667H9.33333Z"
			fill="currentColor" />
	</symbol>

	<!-- ! address icon -->
	<symbol id="mail-icon" viewBox="0 0 24 24" fill="currentColor">
		<path
			d="M19 1H5C3.67441 1.00159 2.40356 1.52888 1.46622 2.46622C0.528882 3.40356 0.00158786 4.67441 0 6L0 18C0.00158786 19.3256 0.528882 20.5964 1.46622 21.5338C2.40356 22.4711 3.67441 22.9984 5 23H19C20.3256 22.9984 21.5964 22.4711 22.5338 21.5338C23.4711 20.5964 23.9984 19.3256 24 18V6C23.9984 4.67441 23.4711 3.40356 22.5338 2.46622C21.5964 1.52888 20.3256 1.00159 19 1ZM5 3H19C19.5988 3.00118 20.1835 3.18151 20.679 3.5178C21.1744 3.85409 21.5579 4.33095 21.78 4.887L14.122 12.546C13.5584 13.1073 12.7954 13.4225 12 13.4225C11.2046 13.4225 10.4416 13.1073 9.878 12.546L2.22 4.887C2.44215 4.33095 2.82561 3.85409 3.32105 3.5178C3.81648 3.18151 4.40121 3.00118 5 3ZM19 21H5C4.20435 21 3.44129 20.6839 2.87868 20.1213C2.31607 19.5587 2 18.7956 2 18V7.5L8.464 13.96C9.40263 14.8963 10.6743 15.422 12 15.422C13.3257 15.422 14.5974 14.8963 15.536 13.96L22 7.5V18C22 18.7956 21.6839 19.5587 21.1213 20.1213C20.5587 20.6839 19.7956 21 19 21Z"
		/>
	</symbol>
	<symbol id="phone-icon" viewBox="0 0 24 24" fill="currentColor">
		<path
			d="M13 0.999888C13 0.734672 13.1053 0.480318 13.2929 0.292781C13.4804 0.105245 13.7348 -0.000112016 14 -0.000112016C16.6513 0.00279958 19.1931 1.0573 21.0678 2.93204C22.9426 4.80677 23.9971 7.34862 24 9.99989C24 10.2651 23.8946 10.5195 23.7071 10.707C23.5196 10.8945 23.2652 10.9999 23 10.9999C22.7348 10.9999 22.4804 10.8945 22.2929 10.707C22.1053 10.5195 22 10.2651 22 9.99989C21.9976 7.87889 21.154 5.84544 19.6542 4.34566C18.1544 2.84589 16.121 2.00227 14 1.99989C13.7348 1.99989 13.4804 1.89453 13.2929 1.707C13.1053 1.51946 13 1.2651 13 0.999888ZM14 5.99989C15.0609 5.99989 16.0783 6.42132 16.8284 7.17146C17.5786 7.92161 18 8.93902 18 9.99989C18 10.2651 18.1053 10.5195 18.2929 10.707C18.4804 10.8945 18.7348 10.9999 19 10.9999C19.2652 10.9999 19.5196 10.8945 19.7071 10.707C19.8946 10.5195 20 10.2651 20 9.99989C19.9984 8.40908 19.3657 6.88388 18.2409 5.759C17.116 4.63413 15.5908 4.00148 14 3.99989C13.7348 3.99989 13.4804 4.10525 13.2929 4.29278C13.1053 4.48032 13 4.73467 13 4.99989C13 5.26511 13.1053 5.51946 13.2929 5.707C13.4804 5.89453 13.7348 5.99989 14 5.99989ZM23.093 16.7389C23.6725 17.32 23.9979 18.1072 23.9979 18.9279C23.9979 19.7486 23.6725 20.5358 23.093 21.1169L22.183 22.1659C13.993 30.0069 -5.93701 10.0819 1.78299 1.86589L2.93299 0.865888C3.51475 0.302565 4.29492 -0.00906294 5.10469 -0.00157717C5.91446 0.00590859 6.68873 0.331906 7.25999 0.905888C7.29099 0.936888 9.14399 3.34389 9.14399 3.34389C9.69382 3.92152 9.99989 4.68882 9.99859 5.48629C9.99728 6.28377 9.6887 7.05006 9.13699 7.62589L7.97899 9.08189C8.61983 10.639 9.56205 12.0541 10.7515 13.246C11.9409 14.4378 13.3542 15.3829 14.91 16.0269L16.375 14.8619C16.9509 14.3106 17.717 14.0024 18.5143 14.0013C19.3115 14.0001 20.0785 14.3062 20.656 14.8559C20.656 14.8559 23.062 16.7079 23.093 16.7389ZM21.717 18.1929C21.717 18.1929 19.324 16.3519 19.293 16.3209C19.087 16.1166 18.8086 16.002 18.5185 16.002C18.2284 16.002 17.95 16.1166 17.744 16.3209C17.717 16.3489 15.7 17.9559 15.7 17.9559C15.5641 18.0641 15.4023 18.135 15.2306 18.1616C15.059 18.1883 14.8833 18.1698 14.721 18.1079C12.7054 17.3575 10.8747 16.1826 9.35282 14.663C7.83092 13.1433 6.65339 11.3143 5.89999 9.29989C5.83318 9.13534 5.81141 8.95598 5.83689 8.78023C5.86237 8.60448 5.9342 8.43868 6.04499 8.29989C6.04499 8.29989 7.65199 6.28189 7.67899 6.25589C7.88325 6.04987 7.99786 5.7715 7.99786 5.48139C7.99786 5.19127 7.88325 4.9129 7.67899 4.70689C7.64799 4.67689 5.80699 2.28189 5.80699 2.28189C5.59789 2.0944 5.32499 1.99398 5.04423 2.00124C4.76348 2.00849 4.49613 2.12285 4.29699 2.32089L3.14699 3.32089C-2.49501 10.1049 14.776 26.4179 20.721 20.7999L21.632 19.7499C21.8455 19.5522 21.9737 19.2791 21.9896 18.9886C22.0054 18.698 21.9077 18.4127 21.717 18.1929Z"
		/>
	</symbol>
	<symbol id="address-icon" viewBox="0 0 24 24" fill="currentColor">
		<path
			d="M21.8 5.57907L14.8 0.855073C13.9742 0.29347 12.9987 -0.00683594 12 -0.00683594C11.0014 -0.00683594 10.0258 0.29347 9.2 0.855073L2.2 5.57907C1.52215 6.03725 0.967097 6.65476 0.583525 7.37745C0.199953 8.10013 -0.000414419 8.9059 6.43539e-07 9.72407V19.0001C0.0015885 20.3257 0.528883 21.5965 1.46622 22.5339C2.40356 23.4712 3.67441 23.9985 5 24.0001H19C20.3256 23.9985 21.5964 23.4712 22.5338 22.5339C23.4711 21.5965 23.9984 20.3257 24 19.0001V9.72407C24.0004 8.9059 23.8001 8.10013 23.4165 7.37745C23.0329 6.65476 22.4778 6.03725 21.8 5.57907ZM22 19.0001C22 19.7957 21.6839 20.5588 21.1213 21.1214C20.5587 21.684 19.7957 22.0001 19 22.0001H5C4.20435 22.0001 3.44129 21.684 2.87868 21.1214C2.31607 20.5588 2 19.7957 2 19.0001V9.72407C1.99997 9.23299 2.1205 8.74941 2.351 8.31579C2.5815 7.88216 2.91492 7.51175 3.322 7.23707L10.322 2.51307C10.817 2.17679 11.4016 1.99699 12 1.99699C12.5984 1.99699 13.183 2.17679 13.678 2.51307L20.678 7.23707C21.0851 7.51175 21.4185 7.88216 21.649 8.31579C21.8795 8.74941 22 9.23299 22 9.72407V19.0001ZM12 7.00607C10.8122 7.00593 9.65116 7.35831 8.66384 8.01859C7.67652 8.67887 6.90739 9.61733 6.45387 10.7151C6.00035 11.8129 5.88285 13.0205 6.11626 14.1851C6.34966 15.3497 6.92347 16.4189 7.765 17.2571L9.589 19.0411C10.2353 19.667 11.0998 20.017 11.9995 20.017C12.8992 20.017 13.7637 19.667 14.41 19.0411L16.243 17.2491C17.0823 16.41 17.6538 15.3408 17.8854 14.1768C18.117 13.0128 17.9981 11.8063 17.544 10.7099C17.0898 9.61343 16.3206 8.6763 15.3338 8.01703C14.347 7.35775 13.1868 7.00593 12 7.00607ZM14.836 15.8271L13.011 17.6121C12.7398 17.8747 12.377 18.0216 11.9995 18.0216C11.622 18.0216 11.2592 17.8747 10.988 17.6121L9.171 15.8351C8.61196 15.276 8.23113 14.5638 8.07663 13.7884C7.92213 13.013 8.00088 12.2092 8.30294 11.4786C8.605 10.7479 9.11681 10.1231 9.77374 9.68319C10.4307 9.24325 11.2032 9.00785 11.9939 9.00673C12.7845 9.00562 13.5577 9.23883 14.2159 9.67692C14.8741 10.115 15.3876 10.7383 15.6918 11.4681C15.9959 12.1979 16.0769 13.0015 15.9246 13.7773C15.7723 14.5531 15.3935 15.2664 14.836 15.8271ZM13 13.0001C13 13.1979 12.9414 13.3912 12.8315 13.5556C12.7216 13.7201 12.5654 13.8483 12.3827 13.924C12.2 13.9996 11.9989 14.0194 11.8049 13.9809C11.6109 13.9423 11.4327 13.847 11.2929 13.7072C11.153 13.5673 11.0578 13.3891 11.0192 13.1952C10.9806 13.0012 11.0004 12.8001 11.0761 12.6174C11.1518 12.4347 11.28 12.2785 11.4444 12.1686C11.6089 12.0587 11.8022 12.0001 12 12.0001C12.2652 12.0001 12.5196 12.1054 12.7071 12.293C12.8946 12.4805 13 12.7349 13 13.0001Z"
		/>
	</symbol>
</svg>