<svg xmlns="http://www.w3.org/2000/svg">
	<!-- ! search icon -->
	<symbol id="search" width="21" height="21" viewBox="0 0 21 21" fill="currentColor">
		<path
			d="M20.2748 19.1875L15.4656 14.3793C16.8595 12.7058 17.5546 10.5594 17.4062 8.38649C17.2579 6.2136 16.2775 4.18155 14.6691 2.71306C13.0607 1.24457 10.948 0.452702 8.77066 0.502187C6.59327 0.551672 4.51878 1.4387 2.97874 2.97874C1.4387 4.51878 0.551672 6.59327 0.502187 8.77066C0.452702 10.948 1.24457 13.0607 2.71306 14.6691C4.18155 16.2775 6.2136 17.2579 8.38649 17.4062C10.5594 17.5546 12.7058 16.8595 14.3793 15.4656L19.1875 20.2748C19.2589 20.3462 19.3437 20.4028 19.437 20.4415C19.5302 20.4801 19.6302 20.5 19.7312 20.5C19.8321 20.5 19.9321 20.4801 20.0254 20.4415C20.1187 20.4028 20.2034 20.3462 20.2748 20.2748C20.3462 20.2034 20.4028 20.1187 20.4415 20.0254C20.4801 19.9321 20.5 19.8321 20.5 19.7312C20.5 19.6302 20.4801 19.5302 20.4415 19.437C20.4028 19.3437 20.3462 19.2589 20.2748 19.1875ZM2.05803 8.97361C2.05803 7.60583 2.46362 6.26878 3.22351 5.13151C3.9834 3.99425 5.06347 3.10787 6.32713 2.58444C7.59078 2.06102 8.98128 1.92407 10.3228 2.19091C11.6643 2.45775 12.8965 3.11639 13.8637 4.08355C14.8308 5.05071 15.4895 6.28295 15.7563 7.62444C16.0231 8.96593 15.8862 10.3564 15.3628 11.6201C14.8393 12.8837 13.953 13.9638 12.8157 14.7237C11.6784 15.4836 10.3414 15.8892 8.97361 15.8892C7.1401 15.8872 5.38228 15.1579 4.0858 13.8614C2.78932 12.5649 2.06006 10.8071 2.05803 8.97361Z"
		/>
	</symbol>

	<!-- ! location icon -->
	<symbol id="location" width="15" height="21" viewBox="0 0 15 21" fill="currentColor"
	>
		<mask id="path-1-inside-1_251_14723" fill="white">
			<path fill-rule="evenodd" clip-rule="evenodd"
				d="M1.60616 11.2463L7.50165 20.5L13.3971 11.2463C16.3618 6.59284 13.0193 0.5 7.50166 0.5C1.98404 0.5 -1.35854 6.59284 1.60616 11.2463ZM7.81971 9.50016C8.52342 9.50016 9.0939 8.90321 9.0939 8.16683C9.0939 7.43045 8.52342 6.8335 7.81971 6.8335C7.11599 6.8335 6.54552 7.43045 6.54552 8.16683C6.54552 8.90321 7.11599 9.50016 7.81971 9.50016Z" />
		</mask>
		<path
			d="M7.50165 20.5L6.30183 21.2644L7.50165 23.1477L8.70148 21.2644L7.50165 20.5ZM1.60616 11.2463L2.80599 10.4819L1.60616 11.2463ZM13.3971 11.2463L14.597 12.0107L13.3971 11.2463ZM8.70148 19.7356L2.80599 10.4819L0.406334 12.0107L6.30183 21.2644L8.70148 19.7356ZM12.1973 10.4819L6.30183 19.7356L8.70148 21.2644L14.597 12.0107L12.1973 10.4819ZM7.50166 1.92264C11.8963 1.92264 14.5587 6.77549 12.1973 10.4819L14.597 12.0107C18.165 6.41019 14.1422 -0.922639 7.50166 -0.922639V1.92264ZM2.80599 10.4819C0.444654 6.77549 3.10696 1.92264 7.50166 1.92264V-0.922639C0.861111 -0.922639 -3.16173 6.41019 0.406334 12.0107L2.80599 10.4819ZM7.67126 8.16683C7.67126 8.16687 7.67127 8.16531 7.67182 8.16251C7.67235 8.15979 7.67328 8.15645 7.6748 8.15269C7.67771 8.1455 7.68289 8.13648 7.69219 8.12675C7.71173 8.1063 7.75737 8.07752 7.81971 8.07752V10.9228C9.36927 10.9228 10.5165 9.62739 10.5165 8.16683H7.67126ZM7.81971 8.25613C7.75737 8.25613 7.71173 8.22736 7.69219 8.20691C7.68289 8.19718 7.67771 8.18816 7.6748 8.18097C7.67328 8.17721 7.67235 8.17387 7.67182 8.17115C7.67127 8.16835 7.67126 8.16679 7.67126 8.16683H10.5165C10.5165 6.70627 9.36926 5.41086 7.81971 5.41086V8.25613ZM7.96816 8.16683C7.96816 8.16679 7.96814 8.16835 7.9676 8.17115C7.96706 8.17387 7.96613 8.17721 7.96462 8.18097C7.96171 8.18816 7.95652 8.19718 7.94723 8.20691C7.92769 8.22736 7.88204 8.25613 7.81971 8.25613V5.41086C6.27015 5.41086 5.12288 6.70627 5.12288 8.16683H7.96816ZM7.81971 8.07752C7.88204 8.07752 7.92769 8.1063 7.94723 8.12675C7.95652 8.13648 7.96171 8.1455 7.96462 8.15269C7.96613 8.15645 7.96706 8.15979 7.9676 8.16251C7.96814 8.16531 7.96816 8.16687 7.96816 8.16683H5.12288C5.12288 9.62739 6.27015 10.9228 7.81971 10.9228V8.07752Z"
			mask="url(#path-1-inside-1_251_14723)" />
	</symbol>

	<!-- ! filter icon -->
	<symbol id="filter" width="23" height="20" viewBox="0 0 23 20" fill="none">
		<path
			d="M1.59722 3.30264L9.1459 11.6062C9.37626 11.8596 9.50391 12.1898 9.50391 12.5322V18.3333C9.50391 18.9952 10.2758 19.3567 10.7843 18.933L13.0086 17.0794C13.3224 16.8179 13.5039 16.4304 13.5039 16.0219V12.5322C13.5039 12.1898 13.6315 11.8596 13.8619 11.6062L21.4106 3.30264C22.2145 2.41834 21.5871 1 20.392 1H2.61584C1.42073 1 0.793304 2.41834 1.59722 3.30264Z"
			stroke="currentColor" stroke-width="1.37662" />
	</symbol>

	<!-- ! favorite icon -->
	<symbol id="favorite" width="20" height="21" viewBox="0 0 20 21" fill="currentColor">
		<path
			d="M10.0638 18.2917L8.85547 17.1917C4.5638 13.3 1.73047 10.725 1.73047 7.58333C1.73047 5.00833 3.74714 3 6.3138 3C7.7638 3 9.15547 3.675 10.0638 4.73333C10.9721 3.675 12.3638 3 13.8138 3C16.3805 3 18.3971 5.00833 18.3971 7.58333C18.3971 10.725 15.5638 13.3 11.2721 17.1917L10.0638 18.2917Z"
		/>
	</symbol>

	<!-- ! favorite-o icon -->
	<symbol id="favorite-o" width="20" height="20" viewBox="0 0 20 20" fill="currentColor">
		<path
			d="M9.96869 15.2769L9.87748 15.3681L9.77714 15.2769C5.44437 11.3455 2.58018 8.74581 2.58018 6.10966C2.58018 4.28534 3.94843 2.9171 5.77275 2.9171C7.17748 2.9171 8.54572 3.82926 9.02917 5.0698H10.7258C11.2092 3.82926 12.5775 2.9171 13.9822 2.9171C15.8065 2.9171 17.1748 4.28534 17.1748 6.10966C17.1748 8.74581 14.3106 11.3455 9.96869 15.2769ZM13.9822 1.09277C12.395 1.09277 10.8717 1.83162 9.87748 2.99007C8.88322 1.83162 7.35991 1.09277 5.77275 1.09277C2.96329 1.09277 0.755859 3.29108 0.755859 6.10966C0.755859 9.54852 3.85721 12.3671 8.55484 16.6269L9.87748 17.8309L11.2001 16.6269C15.8977 12.3671 18.9991 9.54852 18.9991 6.10966C18.9991 3.29108 16.7917 1.09277 13.9822 1.09277Z"
		/>
	</symbol>

	<!-- ! cart icon -->
	<symbol id="cart" width="20" height="21" viewBox="0 0 20 21" fill="currentColor">
		<path
			d="M14.2318 15.5001C13.3068 15.5001 12.5651 16.2417 12.5651 17.1667C12.5651 17.6088 12.7407 18.0327 13.0533 18.3453C13.3658 18.6578 13.7897 18.8334 14.2318 18.8334C14.6738 18.8334 15.0977 18.6578 15.4103 18.3453C15.7228 18.0327 15.8984 17.6088 15.8984 17.1667C15.8984 16.7247 15.7228 16.3008 15.4103 15.9882C15.0977 15.6757 14.6738 15.5001 14.2318 15.5001ZM0.898438 2.16675V3.83341H2.5651L5.5651 10.1584L4.43177 12.2001C4.30677 12.4334 4.23177 12.7084 4.23177 13.0001C4.23177 13.4421 4.40737 13.866 4.71993 14.1786C5.03249 14.4912 5.45641 14.6667 5.89844 14.6667H15.8984V13.0001H6.24844C6.19318 13.0001 6.14019 12.9781 6.10112 12.9391C6.06205 12.9 6.0401 12.847 6.0401 12.7917C6.0401 12.7501 6.04844 12.7167 6.0651 12.6917L6.8151 11.3334H13.0234C13.6484 11.3334 14.1984 10.9834 14.4818 10.4751L17.4651 5.08341C17.5234 4.95008 17.5651 4.80841 17.5651 4.66675C17.5651 4.44573 17.4773 4.23377 17.321 4.07749C17.1647 3.92121 16.9528 3.83341 16.7318 3.83341H4.40677L3.62344 2.16675M5.89844 15.5001C4.97344 15.5001 4.23177 16.2417 4.23177 17.1667C4.23177 17.6088 4.40737 18.0327 4.71993 18.3453C5.03249 18.6578 5.45641 18.8334 5.89844 18.8334C6.34046 18.8334 6.76439 18.6578 7.07695 18.3453C7.38951 18.0327 7.5651 17.6088 7.5651 17.1667C7.5651 16.7247 7.38951 16.3008 7.07695 15.9882C6.76439 15.6757 6.34046 15.5001 5.89844 15.5001Z"
		/>
	</symbol>

	<!-- ! reverse-product icon -->
	<symbol id="reverse-product" width="35" height="32" viewBox="0 0 35 32" fill="currentColor">
		<path
			d="M6.73625 0.292892C7.12678 -0.0976314 7.75994 -0.0976315 8.15046 0.292892L14.5144 6.65685C14.905 7.04738 14.905 7.68054 14.5144 8.07107C14.1239 8.46159 13.4907 8.46159 13.1002 8.07107L7.44336 2.41421L1.7865 8.07107C1.39598 8.46159 0.762815 8.46159 0.372291 8.07107C-0.0182338 7.68054 -0.0182339 7.04738 0.372291 6.65685L6.73625 0.292892ZM6.44336 31L6.44336 0.999998L8.44336 0.999998L8.44336 31L6.44336 31Z" />
		<path
			d="M26.7363 31.7071C27.1268 32.0976 27.7599 32.0976 28.1505 31.7071L34.5144 25.3431C34.905 24.9526 34.905 24.3195 34.5144 23.9289C34.1239 23.5384 33.4907 23.5384 33.1002 23.9289L27.4434 29.5858L21.7865 23.9289C21.396 23.5384 20.7628 23.5384 20.3723 23.9289C19.9818 24.3195 19.9818 24.9526 20.3723 25.3431L26.7363 31.7071ZM26.4434 1L26.4434 31L28.4434 31L28.4434 1L26.4434 1Z" />
	</symbol>

	<!-- ! options icon -->
	<symbol id="options" width="25" height="5" viewBox="0 0 25 5" fill="currentColor">
		<circle cx="2.22831" cy="2.80107" r="2.14823" />
		<circle cx="12.5408" cy="2.80107" r="2.14823" />
		<circle cx="22.8514" cy="2.80107" r="2.14823" />
	</symbol>

	<!-- ! pagination-arrow icon -->
	<symbol width="50" height="50" viewBox="0 0 50 50" fill="currentColor">
		<path
			d="M14.5858 26.4142C13.8047 25.6332 13.8047 24.3668 14.5858 23.5858L27.3137 10.8579C28.0948 10.0768 29.3611 10.0768 30.1421 10.8579C30.9232 11.6389 30.9232 12.9052 30.1421 13.6863L18.8284 25L30.1421 36.3137C30.9232 37.0948 30.9232 38.3611 30.1421 39.1421C29.3611 39.9232 28.0948 39.9232 27.3137 39.1421L14.5858 26.4142ZM17 27L16 27L16 23L17 23L17 27Z"
		/>
	</symbol>

	<!-- ! socials icon -->
	<symbol id="facebook" width="32" height="32" viewBox="0 0 32 32" fill="none">
		<rect width="32" height="32" rx="16" fill="none" />
		<path
			d="M17.5 18V26.5H13.5V18H10V14H10.5H13.5V10L14 8.5L15 7L16 6L17.5 5.5H21.5V9.5H18L17.5 10V14H18H22L20.5 18H17.5Z"
			stroke="currentColor" stroke-linejoin="round" />
	</symbol>
	<symbol id="instagram" width="32" height="32" viewBox="0 0 32 32" fill="none">
		<path
			d="M32 16C32 24.8366 24.8366 32 16 32C7.16344 32 0 24.8366 0 16C0 7.16344 7.16344 0 16 0C24.8366 0 32 7.16344 32 16Z"
			fill="none" />
		<path fill-rule="evenodd" clip-rule="evenodd"
			d="M13.9323 11.8442C14.8071 11.3903 15.8027 11.2238 16.7775 11.3683C17.7719 11.5158 18.6924 11.9791 19.4032 12.6899C20.1141 13.4008 20.5774 14.3213 20.7249 15.3157C20.8694 16.2905 20.7029 17.2861 20.249 18.1609C19.7951 19.0356 19.077 19.745 18.1967 20.188C17.3164 20.6311 16.3188 20.7853 15.3459 20.6288C14.3729 20.4722 13.4741 20.0128 12.7772 19.316C12.0804 18.6191 11.621 17.7203 11.4644 16.7473C11.3079 15.7743 11.4621 14.7768 11.9051 13.8965C12.3482 13.0162 13.0576 12.2981 13.9323 11.8442ZM16.5819 12.6872C15.8845 12.5838 15.1722 12.7029 14.5464 13.0277C13.9206 13.3524 13.4131 13.8662 13.0961 14.4959C12.7791 15.1257 12.6688 15.8394 12.7808 16.5355C12.8928 17.2316 13.2215 17.8746 13.72 18.3732C14.2186 18.8717 14.8616 19.2004 15.5577 19.3124C16.2538 19.4244 16.9675 19.314 17.5972 18.9971C18.227 18.6801 18.7408 18.1726 19.0655 17.5468C19.3902 16.921 19.5094 16.2087 19.4059 15.5113C19.3005 14.7999 18.969 14.1413 18.4604 13.6327C17.9519 13.1242 17.2933 12.7927 16.5819 12.6872Z"
			fill="currentColor" />
		<path
			d="M21.5722 9.85432C21.204 9.85432 20.9056 10.1528 20.9056 10.521C20.9056 10.8892 21.204 11.1877 21.5722 11.1877H21.5838C21.952 11.1877 22.2504 10.8892 22.2504 10.521C22.2504 10.1528 21.952 9.85432 21.5838 9.85432H21.5722Z"
			fill="currentColor" />
		<path fill-rule="evenodd" clip-rule="evenodd"
			d="M5.33333 11.0233C5.33333 7.88082 7.88082 5.33333 11.0233 5.33333H21.0699C24.2124 5.33333 26.7599 7.88082 26.7599 11.0233V21.0699C26.7599 24.2124 24.2124 26.7599 21.0699 26.7599H11.0233C7.88082 26.7599 5.33333 24.2124 5.33333 21.0699V11.0233ZM11.0233 6.66667C8.6172 6.66667 6.66667 8.6172 6.66667 11.0233V21.0699C6.66667 23.476 8.6172 25.4266 11.0233 25.4266H21.0699C23.476 25.4266 25.4266 23.476 25.4266 21.0699V11.0233C25.4266 8.6172 23.476 6.66667 21.0699 6.66667H11.0233Z"
			fill="currentColor" />
	</symbol>
	<symbol id="youtube" width="32" height="32" viewBox="0 0 32 32" fill="none"
	>
		<path
			d="M32 16C32 24.8366 24.8366 32 16 32C7.16344 32 0 24.8366 0 16C0 7.16344 7.16344 0 16 0C24.8366 0 32 7.16344 32 16Z"
			fill="none" />
		<path fill-rule="evenodd" clip-rule="evenodd"
			d="M20.6667 16C20.6667 16.2382 20.5396 16.4583 20.3333 16.5774L13.3333 20.6188C13.1271 20.7379 12.8729 20.7379 12.6667 20.6188C12.4604 20.4997 12.3333 20.2796 12.3333 20.0415V11.9585C12.3333 11.7204 12.4604 11.5003 12.6667 11.3812C12.8729 11.2621 13.1271 11.2621 13.3333 11.3812L20.3333 15.4226C20.5396 15.5417 20.6667 15.7618 20.6667 16ZM13.6667 13.1132V18.8868L18.6667 16L13.6667 13.1132Z"
			fill="currentColor" />
		<path fill-rule="evenodd" clip-rule="evenodd"
			d="M22.6667 8H9.33333C7.12419 8 5.33333 9.79086 5.33333 12V20C5.33333 22.2091 7.12419 24 9.33333 24H22.6667C24.8758 24 26.6667 22.2091 26.6667 20V12C26.6667 9.79086 24.8758 8 22.6667 8ZM9.33333 6.66667C6.38781 6.66667 4 9.05448 4 12V20C4 22.9455 6.38781 25.3333 9.33333 25.3333H22.6667C25.6122 25.3333 28 22.9455 28 20V12C28 9.05448 25.6122 6.66667 22.6667 6.66667H9.33333Z"
			fill="currentColor" />
	</symbol>
</svg>