<svg width="20" height="21" viewBox="0 0 20 21" fill="none" xmlns="http://www.w3.org/2000/svg">
<path d="M14.2318 15.5001C13.3068 15.5001 12.5651 16.2417 12.5651 17.1667C12.5651 17.6088 12.7407 18.0327 13.0533 18.3453C13.3658 18.6578 13.7897 18.8334 14.2318 18.8334C14.6738 18.8334 15.0977 18.6578 15.4103 18.3453C15.7228 18.0327 15.8984 17.6088 15.8984 17.1667C15.8984 16.7247 15.7228 16.3008 15.4103 15.9882C15.0977 15.6757 14.6738 15.5001 14.2318 15.5001ZM0.898438 2.16675V3.83341H2.5651L5.5651 10.1584L4.43177 12.2001C4.30677 12.4334 4.23177 12.7084 4.23177 13.0001C4.23177 13.4421 4.40737 13.866 4.71993 14.1786C5.03249 14.4912 5.45641 14.6667 5.89844 14.6667H15.8984V13.0001H6.24844C6.19318 13.0001 6.14019 12.9781 6.10112 12.9391C6.06205 12.9 6.0401 12.847 6.0401 12.7917C6.0401 12.7501 6.04844 12.7167 6.0651 12.6917L6.8151 11.3334H13.0234C13.6484 11.3334 14.1984 10.9834 14.4818 10.4751L17.4651 5.08341C17.5234 4.95008 17.5651 4.80841 17.5651 4.66675C17.5651 4.44573 17.4773 4.23377 17.321 4.07749C17.1647 3.92121 16.9528 3.83341 16.7318 3.83341H4.40677L3.62344 2.16675M5.89844 15.5001C4.97344 15.5001 4.23177 16.2417 4.23177 17.1667C4.23177 17.6088 4.40737 18.0327 4.71993 18.3453C5.03249 18.6578 5.45641 18.8334 5.89844 18.8334C6.34046 18.8334 6.76439 18.6578 7.07695 18.3453C7.38951 18.0327 7.5651 17.6088 7.5651 17.1667C7.5651 16.7247 7.38951 16.3008 7.07695 15.9882C6.76439 15.6757 6.34046 15.5001 5.89844 15.5001Z" fill="black"/>
</svg>
