<svg width="19" height="19" viewBox="0 0 19 19" fill="none" xmlns="http://www.w3.org/2000/svg">
<path d="M9.96869 15.2769L9.87748 15.3681L9.77714 15.2769C5.44437 11.3455 2.58018 8.74581 2.58018 6.10966C2.58018 4.28534 3.94843 2.9171 5.77275 2.9171C7.17748 2.9171 8.54572 3.82926 9.02917 5.0698H10.7258C11.2092 3.82926 12.5775 2.9171 13.9822 2.9171C15.8065 2.9171 17.1748 4.28534 17.1748 6.10966C17.1748 8.74581 14.3106 11.3455 9.96869 15.2769ZM13.9822 1.09277C12.395 1.09277 10.8717 1.83162 9.87748 2.99007C8.88322 1.83162 7.35991 1.09277 5.77275 1.09277C2.96329 1.09277 0.755859 3.29108 0.755859 6.10966C0.755859 9.54852 3.85721 12.3671 8.55484 16.6269L9.87748 17.8309L11.2001 16.6269C15.8977 12.3671 18.9991 9.54852 18.9991 6.10966C18.9991 3.29108 16.7917 1.09277 13.9822 1.09277Z" fill="black"/>
</svg>
