<svg width="25" height="24" viewBox="0 0 25 24" fill="none" xmlns="http://www.w3.org/2000/svg">
<path d="M21.5 22.0001V7.48509C21.5 6.38709 21.5 5.83909 21.184 5.37509C20.869 4.91209 20.288 4.60809 19.125 3.99909L17.645 3.22509C15.821 2.26909 14.908 1.79109 14.205 2.08709C13.5 2.38309 13.5 3.24509 13.5 4.96709V9.00009M22.5 22.0001H2.5M21.5 8.00009H19.5M21.5 11.0001H19.5M21.5 14.0001H19.5" stroke="black" stroke-width="1.5" stroke-linecap="round" stroke-linejoin="round"/>
<path d="M12 13H13M12 16H13M8.5 13C8.5 11.114 8.5 10.172 9.086 9.586C9.672 9 10.614 9 12.5 9C14.386 9 15.328 9 15.914 9.586C16.5 10.172 16.5 11.114 16.5 13V22H8.5V13Z" stroke="black" stroke-width="1.5" stroke-linecap="round" stroke-linejoin="round"/>
<path d="M4 16C4.82843 16 5.5 15.1046 5.5 14C5.5 12.8954 4.82843 12 4 12C3.17157 12 2.5 12.8954 2.5 14C2.5 15.1046 3.17157 16 4 16Z" stroke="black" stroke-width="1.5" stroke-linecap="round" stroke-linejoin="round"/>
<path d="M4 16V22" stroke="black" stroke-width="1.5" stroke-linecap="round" stroke-linejoin="round"/>
</svg>
