<svg width="32" height="32" viewBox="0 0 32 32" fill="none" xmlns="http://www.w3.org/2000/svg">
<path d="M32 16C32 24.8366 24.8366 32 16 32C7.16344 32 0 24.8366 0 16C0 7.16344 7.16344 0 16 0C24.8366 0 32 7.16344 32 16Z" fill="white"/>
<path fill-rule="evenodd" clip-rule="evenodd" d="M13.9323 11.8442C14.8071 11.3903 15.8027 11.2238 16.7775 11.3683C17.7719 11.5158 18.6924 11.9791 19.4032 12.6899C20.1141 13.4008 20.5774 14.3213 20.7249 15.3157C20.8694 16.2905 20.7029 17.2861 20.249 18.1609C19.7951 19.0356 19.077 19.745 18.1967 20.188C17.3164 20.6311 16.3188 20.7853 15.3459 20.6288C14.3729 20.4722 13.4741 20.0128 12.7772 19.316C12.0804 18.6191 11.621 17.7203 11.4644 16.7473C11.3079 15.7743 11.4621 14.7768 11.9051 13.8965C12.3482 13.0162 13.0576 12.2981 13.9323 11.8442ZM16.5819 12.6872C15.8845 12.5838 15.1722 12.7029 14.5464 13.0277C13.9206 13.3524 13.4131 13.8662 13.0961 14.4959C12.7791 15.1257 12.6688 15.8394 12.7808 16.5355C12.8928 17.2316 13.2215 17.8746 13.72 18.3732C14.2186 18.8717 14.8616 19.2004 15.5577 19.3124C16.2538 19.4244 16.9675 19.314 17.5972 18.9971C18.227 18.6801 18.7408 18.1726 19.0655 17.5468C19.3902 16.921 19.5094 16.2087 19.4059 15.5113C19.3005 14.7999 18.969 14.1413 18.4604 13.6327C17.9519 13.1242 17.2933 12.7927 16.5819 12.6872Z" fill="black"/>
<path d="M21.5722 9.85432C21.204 9.85432 20.9056 10.1528 20.9056 10.521C20.9056 10.8892 21.204 11.1877 21.5722 11.1877H21.5838C21.952 11.1877 22.2504 10.8892 22.2504 10.521C22.2504 10.1528 21.952 9.85432 21.5838 9.85432H21.5722Z" fill="black"/>
<path fill-rule="evenodd" clip-rule="evenodd" d="M5.33333 11.0233C5.33333 7.88082 7.88082 5.33333 11.0233 5.33333H21.0699C24.2124 5.33333 26.7599 7.88082 26.7599 11.0233V21.0699C26.7599 24.2124 24.2124 26.7599 21.0699 26.7599H11.0233C7.88082 26.7599 5.33333 24.2124 5.33333 21.0699V11.0233ZM11.0233 6.66667C8.6172 6.66667 6.66667 8.6172 6.66667 11.0233V21.0699C6.66667 23.476 8.6172 25.4266 11.0233 25.4266H21.0699C23.476 25.4266 25.4266 23.476 25.4266 21.0699V11.0233C25.4266 8.6172 23.476 6.66667 21.0699 6.66667H11.0233Z" fill="black"/>
</svg>
