<svg width="15" height="21" viewBox="0 0 15 21" fill="none" xmlns="http://www.w3.org/2000/svg">
<mask id="path-1-inside-1_251_14723" fill="white">
<path fill-rule="evenodd" clip-rule="evenodd" d="M1.60616 11.2463L7.50165 20.5L13.3971 11.2463C16.3618 6.59284 13.0193 0.5 7.50166 0.5C1.98404 0.5 -1.35854 6.59284 1.60616 11.2463ZM7.81971 9.50016C8.52342 9.50016 9.0939 8.90321 9.0939 8.16683C9.0939 7.43045 8.52342 6.8335 7.81971 6.8335C7.11599 6.8335 6.54552 7.43045 6.54552 8.16683C6.54552 8.90321 7.11599 9.50016 7.81971 9.50016Z"/>
</mask>
<path d="M7.50165 20.5L6.30183 21.2644L7.50165 23.1477L8.70148 21.2644L7.50165 20.5ZM1.60616 11.2463L2.80599 10.4819L1.60616 11.2463ZM13.3971 11.2463L14.597 12.0107L13.3971 11.2463ZM8.70148 19.7356L2.80599 10.4819L0.406334 12.0107L6.30183 21.2644L8.70148 19.7356ZM12.1973 10.4819L6.30183 19.7356L8.70148 21.2644L14.597 12.0107L12.1973 10.4819ZM7.50166 1.92264C11.8963 1.92264 14.5587 6.77549 12.1973 10.4819L14.597 12.0107C18.165 6.41019 14.1422 -0.922639 7.50166 -0.922639V1.92264ZM2.80599 10.4819C0.444654 6.77549 3.10696 1.92264 7.50166 1.92264V-0.922639C0.861111 -0.922639 -3.16173 6.41019 0.406334 12.0107L2.80599 10.4819ZM7.67126 8.16683C7.67126 8.16687 7.67127 8.16531 7.67182 8.16251C7.67235 8.15979 7.67328 8.15645 7.6748 8.15269C7.67771 8.1455 7.68289 8.13648 7.69219 8.12675C7.71173 8.1063 7.75737 8.07752 7.81971 8.07752V10.9228C9.36927 10.9228 10.5165 9.62739 10.5165 8.16683H7.67126ZM7.81971 8.25613C7.75737 8.25613 7.71173 8.22736 7.69219 8.20691C7.68289 8.19718 7.67771 8.18816 7.6748 8.18097C7.67328 8.17721 7.67235 8.17387 7.67182 8.17115C7.67127 8.16835 7.67126 8.16679 7.67126 8.16683H10.5165C10.5165 6.70627 9.36926 5.41086 7.81971 5.41086V8.25613ZM7.96816 8.16683C7.96816 8.16679 7.96814 8.16835 7.9676 8.17115C7.96706 8.17387 7.96613 8.17721 7.96462 8.18097C7.96171 8.18816 7.95652 8.19718 7.94723 8.20691C7.92769 8.22736 7.88204 8.25613 7.81971 8.25613V5.41086C6.27015 5.41086 5.12288 6.70627 5.12288 8.16683H7.96816ZM7.81971 8.07752C7.88204 8.07752 7.92769 8.1063 7.94723 8.12675C7.95652 8.13648 7.96171 8.1455 7.96462 8.15269C7.96613 8.15645 7.96706 8.15979 7.9676 8.16251C7.96814 8.16531 7.96816 8.16687 7.96816 8.16683H5.12288C5.12288 9.62739 6.27015 10.9228 7.81971 10.9228V8.07752Z" fill="black" mask="url(#path-1-inside-1_251_14723)"/>
</svg>
