<svg width="19" height="20" viewBox="0 0 19 20" fill="none" xmlns="http://www.w3.org/2000/svg">
<path d="M10.5084 5.14329L11.1663 5.38316C11.4259 5.47816 11.6302 5.67845 11.726 5.93179L11.969 6.58095C12.0846 6.89049 12.3799 7.09554 12.71 7.09554C13.0402 7.09554 13.3354 6.89129 13.4518 6.58174L13.6949 5.93416C13.7914 5.67924 13.9957 5.47816 14.2554 5.38395L14.9132 5.14408C15.2259 5.03008 15.4334 4.73241 15.4334 4.4007C15.4334 4.06899 15.2252 3.77133 14.9132 3.65733L14.2554 3.41745C13.9957 3.32245 13.7914 3.12216 13.6957 2.86804L13.4518 2.21887C13.3362 1.90933 13.0402 1.70508 12.71 1.70508C12.3799 1.70508 12.0846 1.91012 11.969 2.21966L11.7268 2.86645C11.6302 3.12137 11.4259 3.32245 11.1663 3.41666L10.5084 3.65654C10.1957 3.77054 9.98828 4.0682 9.98828 4.39991C9.98828 4.73162 10.1965 5.02929 10.5084 5.14329Z" fill="black"/>
<path d="M17.7221 10.0034C17.4038 9.87039 17.0333 9.95905 16.8109 10.2243C16.0762 11.0998 14.8262 11.5076 12.8779 11.5076C9.85846 11.5076 7.98617 10.6921 7.98617 6.63247C7.98617 4.73485 8.40734 3.45076 9.27342 2.70818C9.53467 2.48335 9.62096 2.11522 9.48638 1.79776C9.3518 1.4811 9.03434 1.28635 8.68284 1.3196C4.1838 1.74472 0.791504 5.46951 0.791504 9.98201C0.791504 14.7811 4.7055 18.6856 9.51725 18.6856C14.0456 18.6856 17.7807 15.2988 18.2042 10.8077C18.2375 10.4626 18.0419 10.1372 17.7221 10.0034Z" fill="black"/>
<path d="M14.6377 10.4355C15.2935 10.4355 15.8252 9.90389 15.8252 9.24805C15.8252 8.59221 15.2935 8.06055 14.6377 8.06055C13.9819 8.06055 13.4502 8.59221 13.4502 9.24805C13.4502 9.90389 13.9819 10.4355 14.6377 10.4355Z" fill="black"/>
<path d="M11.0752 9.96826C11.731 9.96826 12.2627 9.4366 12.2627 8.78076C12.2627 8.12492 11.731 7.59326 11.0752 7.59326C10.4194 7.59326 9.8877 8.12492 9.8877 8.78076C9.8877 9.4366 10.4194 9.96826 11.0752 9.96826Z" fill="black"/>
</svg>
