<svg width="24" height="24" viewBox="0 0 24 24" fill="none" xmlns="http://www.w3.org/2000/svg">
<g opacity="0.6" clip-path="url(#clip0_300_3355)">
<path d="M13 0.999888C13 0.734672 13.1053 0.480318 13.2929 0.292781C13.4804 0.105245 13.7348 -0.000112016 14 -0.000112016C16.6513 0.00279958 19.1931 1.0573 21.0678 2.93204C22.9426 4.80677 23.9971 7.34862 24 9.99989C24 10.2651 23.8946 10.5195 23.7071 10.707C23.5196 10.8945 23.2652 10.9999 23 10.9999C22.7348 10.9999 22.4804 10.8945 22.2929 10.707C22.1053 10.5195 22 10.2651 22 9.99989C21.9976 7.87889 21.154 5.84544 19.6542 4.34566C18.1544 2.84589 16.121 2.00227 14 1.99989C13.7348 1.99989 13.4804 1.89453 13.2929 1.707C13.1053 1.51946 13 1.2651 13 0.999888ZM14 5.99989C15.0609 5.99989 16.0783 6.42132 16.8284 7.17146C17.5786 7.92161 18 8.93902 18 9.99989C18 10.2651 18.1053 10.5195 18.2929 10.707C18.4804 10.8945 18.7348 10.9999 19 10.9999C19.2652 10.9999 19.5196 10.8945 19.7071 10.707C19.8946 10.5195 20 10.2651 20 9.99989C19.9984 8.40908 19.3657 6.88388 18.2409 5.759C17.116 4.63413 15.5908 4.00148 14 3.99989C13.7348 3.99989 13.4804 4.10525 13.2929 4.29278C13.1053 4.48032 13 4.73467 13 4.99989C13 5.26511 13.1053 5.51946 13.2929 5.707C13.4804 5.89453 13.7348 5.99989 14 5.99989ZM23.093 16.7389C23.6725 17.32 23.9979 18.1072 23.9979 18.9279C23.9979 19.7486 23.6725 20.5358 23.093 21.1169L22.183 22.1659C13.993 30.0069 -5.93701 10.0819 1.78299 1.86589L2.93299 0.865888C3.51475 0.302565 4.29492 -0.00906294 5.10469 -0.00157717C5.91446 0.00590859 6.68873 0.331906 7.25999 0.905888C7.29099 0.936888 9.14399 3.34389 9.14399 3.34389C9.69382 3.92152 9.99989 4.68882 9.99859 5.48629C9.99728 6.28377 9.6887 7.05006 9.13699 7.62589L7.97899 9.08189C8.61983 10.639 9.56205 12.0541 10.7515 13.246C11.9409 14.4378 13.3542 15.3829 14.91 16.0269L16.375 14.8619C16.9509 14.3106 17.717 14.0024 18.5143 14.0013C19.3115 14.0001 20.0785 14.3062 20.656 14.8559C20.656 14.8559 23.062 16.7079 23.093 16.7389ZM21.717 18.1929C21.717 18.1929 19.324 16.3519 19.293 16.3209C19.087 16.1166 18.8086 16.002 18.5185 16.002C18.2284 16.002 17.95 16.1166 17.744 16.3209C17.717 16.3489 15.7 17.9559 15.7 17.9559C15.5641 18.0641 15.4023 18.135 15.2306 18.1616C15.059 18.1883 14.8833 18.1698 14.721 18.1079C12.7054 17.3575 10.8747 16.1826 9.35282 14.663C7.83092 13.1433 6.65339 11.3143 5.89999 9.29989C5.83318 9.13534 5.81141 8.95598 5.83689 8.78023C5.86237 8.60448 5.9342 8.43868 6.04499 8.29989C6.04499 8.29989 7.65199 6.28189 7.67899 6.25589C7.88325 6.04987 7.99786 5.7715 7.99786 5.48139C7.99786 5.19127 7.88325 4.9129 7.67899 4.70689C7.64799 4.67689 5.80699 2.28189 5.80699 2.28189C5.59789 2.0944 5.32499 1.99398 5.04423 2.00124C4.76348 2.00849 4.49613 2.12285 4.29699 2.32089L3.14699 3.32089C-2.49501 10.1049 14.776 26.4179 20.721 20.7999L21.632 19.7499C21.8455 19.5522 21.9737 19.2791 21.9896 18.9886C22.0054 18.698 21.9077 18.4127 21.717 18.1929Z" fill="black"/>
</g>
<defs>
<clipPath id="clip0_300_3355">
<rect width="24" height="24" fill="white"/>
</clipPath>
</defs>
</svg>
