<svg width="35" height="32" viewBox="0 0 35 32" fill="none" xmlns="http://www.w3.org/2000/svg">
<path d="M6.73625 0.292892C7.12678 -0.0976314 7.75994 -0.0976315 8.15046 0.292892L14.5144 6.65685C14.905 7.04738 14.905 7.68054 14.5144 8.07107C14.1239 8.46159 13.4907 8.46159 13.1002 8.07107L7.44336 2.41421L1.7865 8.07107C1.39598 8.46159 0.762815 8.46159 0.372291 8.07107C-0.0182338 7.68054 -0.0182339 7.04738 0.372291 6.65685L6.73625 0.292892ZM6.44336 31L6.44336 0.999998L8.44336 0.999998L8.44336 31L6.44336 31Z" fill="black"/>
<path d="M26.7363 31.7071C27.1268 32.0976 27.7599 32.0976 28.1505 31.7071L34.5144 25.3431C34.905 24.9526 34.905 24.3195 34.5144 23.9289C34.1239 23.5384 33.4907 23.5384 33.1002 23.9289L27.4434 29.5858L21.7865 23.9289C21.396 23.5384 20.7628 23.5384 20.3723 23.9289C19.9818 24.3195 19.9818 24.9526 20.3723 25.3431L26.7363 31.7071ZM26.4434 1L26.4434 31L28.4434 31L28.4434 1L26.4434 1Z" fill="black"/>
</svg>
