<svg width="21" height="21" viewBox="0 0 21 21" fill="none" xmlns="http://www.w3.org/2000/svg">
<path d="M20.2748 19.1875L15.4656 14.3793C16.8595 12.7058 17.5546 10.5594 17.4062 8.38649C17.2579 6.2136 16.2775 4.18155 14.6691 2.71306C13.0607 1.24457 10.948 0.452702 8.77066 0.502187C6.59327 0.551672 4.51878 1.4387 2.97874 2.97874C1.4387 4.51878 0.551672 6.59327 0.502187 8.77066C0.452702 10.948 1.24457 13.0607 2.71306 14.6691C4.18155 16.2775 6.2136 17.2579 8.38649 17.4062C10.5594 17.5546 12.7058 16.8595 14.3793 15.4656L19.1875 20.2748C19.2589 20.3462 19.3437 20.4028 19.437 20.4415C19.5302 20.4801 19.6302 20.5 19.7312 20.5C19.8321 20.5 19.9321 20.4801 20.0254 20.4415C20.1187 20.4028 20.2034 20.3462 20.2748 20.2748C20.3462 20.2034 20.4028 20.1187 20.4415 20.0254C20.4801 19.9321 20.5 19.8321 20.5 19.7312C20.5 19.6302 20.4801 19.5302 20.4415 19.437C20.4028 19.3437 20.3462 19.2589 20.2748 19.1875ZM2.05803 8.97361C2.05803 7.60583 2.46362 6.26878 3.22351 5.13151C3.9834 3.99425 5.06347 3.10787 6.32713 2.58444C7.59078 2.06102 8.98128 1.92407 10.3228 2.19091C11.6643 2.45775 12.8965 3.11639 13.8637 4.08355C14.8308 5.05071 15.4895 6.28295 15.7563 7.62444C16.0231 8.96593 15.8862 10.3564 15.3628 11.6201C14.8393 12.8837 13.953 13.9638 12.8157 14.7237C11.6784 15.4836 10.3414 15.8892 8.97361 15.8892C7.1401 15.8872 5.38228 15.1579 4.0858 13.8614C2.78932 12.5649 2.06006 10.8071 2.05803 8.97361Z" fill="black"/>
</svg>
