<svg width="36" height="32" viewBox="0 0 36 32" fill="none" xmlns="http://www.w3.org/2000/svg">
<path d="M7.51457 0.292892C7.9051 -0.0976314 8.53826 -0.0976315 8.92879 0.292892L15.2927 6.65685C15.6833 7.04738 15.6833 7.68054 15.2927 8.07107C14.9022 8.46159 14.2691 8.46159 13.8785 8.07107L8.22168 2.41421L2.56482 8.07107C2.1743 8.46159 1.54114 8.46159 1.15061 8.07107C0.760086 7.68054 0.760086 7.04738 1.15061 6.65685L7.51457 0.292892ZM7.22168 31L7.22168 0.999998L9.22168 0.999998L9.22168 31L7.22168 31Z" fill="black"/>
<path d="M27.5146 31.7071C27.9051 32.0976 28.5383 32.0976 28.9288 31.7071L35.2927 25.3431C35.6833 24.9526 35.6833 24.3195 35.2927 23.9289C34.9022 23.5384 34.2691 23.5384 33.8785 23.9289L28.2217 29.5858L22.5648 23.9289C22.1743 23.5384 21.5411 23.5384 21.1506 23.9289C20.7601 24.3195 20.7601 24.9526 21.1506 25.3431L27.5146 31.7071ZM27.2217 1L27.2217 31L29.2217 31L29.2217 1L27.2217 1Z" fill="black"/>
</svg>
