<svg width="19" height="20" viewBox="0 0 19 20" fill="none" xmlns="http://www.w3.org/2000/svg">
<g clip-path="url(#clip0_300_3407)">
<path d="M9.5 13.9583C7.315 13.9583 5.54167 12.185 5.54167 10C5.54167 7.815 7.315 6.04167 9.5 6.04167C11.685 6.04167 13.4583 7.815 13.4583 10C13.4583 12.185 11.685 13.9583 9.5 13.9583ZM10.2917 3.66667V1.29167C10.2917 0.85625 9.93542 0.5 9.5 0.5C9.06458 0.5 8.70833 0.85625 8.70833 1.29167V3.66667C8.70833 4.10208 9.06458 4.45833 9.5 4.45833C9.93542 4.45833 10.2917 4.10208 10.2917 3.66667ZM10.2917 18.7083V16.3333C10.2917 15.8979 9.93542 15.5417 9.5 15.5417C9.06458 15.5417 8.70833 15.8979 8.70833 16.3333V18.7083C8.70833 19.1438 9.06458 19.5 9.5 19.5C9.93542 19.5 10.2917 19.1438 10.2917 18.7083ZM3.95833 10C3.95833 9.56458 3.60208 9.20833 3.16667 9.20833H0.791667C0.35625 9.20833 0 9.56458 0 10C0 10.4354 0.35625 10.7917 0.791667 10.7917H3.16667C3.60208 10.7917 3.95833 10.4354 3.95833 10ZM19 10C19 9.56458 18.6438 9.20833 18.2083 9.20833H15.8333C15.3979 9.20833 15.0417 9.56458 15.0417 10C15.0417 10.4354 15.3979 10.7917 15.8333 10.7917H18.2083C18.6438 10.7917 19 10.4354 19 10ZM5.31208 5.81208C5.62083 5.50333 5.62083 5.00458 5.31208 4.69583L3.72875 3.1125C3.42 2.80375 2.92125 2.80375 2.6125 3.1125C2.30375 3.42125 2.30375 3.92 2.6125 4.22875L4.19583 5.81208C4.35417 5.97042 4.55208 6.04167 4.75792 6.04167C4.96375 6.04167 5.16167 5.9625 5.32 5.81208H5.31208ZM16.3954 16.8954C16.7042 16.5867 16.7042 16.0879 16.3954 15.7792L14.8121 14.1958C14.5033 13.8871 14.0046 13.8871 13.6958 14.1958C13.3871 14.5046 13.3871 15.0033 13.6958 15.3121L15.2792 16.8954C15.4375 17.0537 15.6354 17.125 15.8413 17.125C16.0471 17.125 16.245 17.0458 16.4033 16.8954H16.3954ZM3.72875 16.8954L5.31208 15.3121C5.62083 15.0033 5.62083 14.5046 5.31208 14.1958C5.00333 13.8871 4.50458 13.8871 4.19583 14.1958L2.6125 15.7792C2.30375 16.0879 2.30375 16.5867 2.6125 16.8954C2.77083 17.0537 2.96875 17.125 3.17458 17.125C3.38042 17.125 3.57833 17.0458 3.73667 16.8954H3.72875ZM14.8121 5.81208L16.3954 4.22875C16.7042 3.92 16.7042 3.42125 16.3954 3.1125C16.0867 2.80375 15.5879 2.80375 15.2792 3.1125L13.6958 4.69583C13.3871 5.00458 13.3871 5.50333 13.6958 5.81208C13.8542 5.97042 14.0521 6.04167 14.2579 6.04167C14.4638 6.04167 14.6617 5.9625 14.82 5.81208H14.8121Z" fill="white"/>
</g>
<defs>
<clipPath id="clip0_300_3407">
<rect width="19" height="19" fill="white" transform="translate(0 0.5)"/>
</clipPath>
</defs>
</svg>
