<svg width="32" height="32" viewBox="0 0 32 32" fill="none" xmlns="http://www.w3.org/2000/svg">
<path d="M32 16C32 24.8366 24.8366 32 16 32C7.16344 32 0 24.8366 0 16C0 7.16344 7.16344 0 16 0C24.8366 0 32 7.16344 32 16Z" fill="white"/>
<path fill-rule="evenodd" clip-rule="evenodd" d="M20.6667 16C20.6667 16.2382 20.5396 16.4583 20.3333 16.5774L13.3333 20.6188C13.1271 20.7379 12.8729 20.7379 12.6667 20.6188C12.4604 20.4997 12.3333 20.2796 12.3333 20.0415V11.9585C12.3333 11.7204 12.4604 11.5003 12.6667 11.3812C12.8729 11.2621 13.1271 11.2621 13.3333 11.3812L20.3333 15.4226C20.5396 15.5417 20.6667 15.7618 20.6667 16ZM13.6667 13.1132V18.8868L18.6667 16L13.6667 13.1132Z" fill="black"/>
<path fill-rule="evenodd" clip-rule="evenodd" d="M22.6667 8H9.33333C7.12419 8 5.33333 9.79086 5.33333 12V20C5.33333 22.2091 7.12419 24 9.33333 24H22.6667C24.8758 24 26.6667 22.2091 26.6667 20V12C26.6667 9.79086 24.8758 8 22.6667 8ZM9.33333 6.66667C6.38781 6.66667 4 9.05448 4 12V20C4 22.9455 6.38781 25.3333 9.33333 25.3333H22.6667C25.6122 25.3333 28 22.9455 28 20V12C28 9.05448 25.6122 6.66667 22.6667 6.66667H9.33333Z" fill="black"/>
</svg>
